# xmcd
#
# Track frame offsets:
#	150
#	14622
#	30703
#	45466
#	64336
#	81149
#	100570
#	114227
#	131846
#	146391
#
# Disc length: 2120 seconds
#
# Revision: 1
# Processed by: cddbd v1.5.2PL0 Copyright (c) Steve Scherf et al.
# Submitted via: audiograbber 1.83.01
#
DISCID=7e08460a
DTITLE=Oh Laura - A Song Inside My Head A Demon In My Bed
DYEAR=2008
DGENRE=Country
TTITLE0=A Call To Arms
TTITLE1=It Ain't Enough
TTITLE2=Release Me
TTITLE3=Black N' Blue
TTITLE4=Fine Line
TTITLE5=Raining In New York
TTITLE6=Out Of Bounds
TTITLE7=Killer On The Road
TTITLE8=The Mess You Left Behind
TTITLE9=Thunderbird Motel
EXTD=
EXTT0=
EXTT1=
EXTT2=
EXTT3=
EXTT4=
EXTT5=
EXTT6=
EXTT7=
EXTT8=
EXTT9=
PLAYORDER=
